<svg viewBox="0 0 500 500" xmlns:xlink="http://www.w3.org/1999/xlink" xmlns="http://www.w3.org/2000/svg" id="图层_1"><defs><style>.cls-1,.cls-2{fill:#ca350c;}.cls-1,.cls-10,.cls-13,.cls-14,.cls-7,.cls-8,.cls-9{stroke:#000;}.cls-1,.cls-10,.cls-11,.cls-13,.cls-14,.cls-7,.cls-8,.cls-9{stroke-miterlimit:10;}.cls-1,.cls-14,.cls-7,.cls-8{stroke-width:5.45px;}.cls-3{clip-path:url(#clip-path);}.cls-4{fill:#b72d0d;}.cls-5{fill:#ea9734;}.cls-6{fill:#f5aa41;}.cls-11,.cls-7{fill:none;}.cls-8{fill:#edc040;}.cls-9{fill:#dd8c2c;stroke-width:4.36px;}.cls-10{fill:#ebbd3e;stroke-width:5.12px;}.cls-11{stroke:#ea3d15;stroke-linecap:round;stroke-width:6.54px;}.cls-12{fill:#ea3d15;}.cls-13,.cls-14{fill:#b5834d;}.cls-13{stroke-width:5.42px;}</style><clipPath id="clip-path"><path d="M160.34,169.06l1.11,246.11a7.83,7.83,0,0,0,3.5,6.49C182,433,259.69,477.85,350.86,419.93a7.86,7.86,0,0,0,3.66-6.54l3.07-247.1a6.66,6.66,0,0,0-6.66-6.75H169.82A9.48,9.48,0,0,0,160.34,169.06Z" class="cls-1"></path></clipPath></defs><title>鞭炮</title><path d="M160.34,169.06l1.11,246.11a7.83,7.83,0,0,0,3.5,6.49C182,433,259.69,477.85,350.86,419.93a7.86,7.86,0,0,0,3.66-6.54l3.07-247.1a6.66,6.66,0,0,0-6.66-6.75H169.82A9.48,9.48,0,0,0,160.34,169.06Z" class="cls-2"></path><g class="cls-3"><path d="M289.91,219.48l2.79,259s114.71-69.61,114.71-79.63-42.32-175.51-42.32-175.51l7.79-29.15Z" class="cls-4"></path><path d="M292,415.14s68.8-15.07,89.23-29.63-3.34,77-3.34,77S305,508,304.39,491.87s-12-42.94-12-42.94L292,415.14" class="cls-5"></path><polyline points="290.47 216.57 290.47 175.04 380.12 154.87 375.11 192.92" class="cls-5"></polyline><path d="M294.66,477.31,292,415.14s-87.58,9.19-147.44-25.74-4.46,116.39-4.46,116.39Z" class="cls-6"></path><path d="M290.47,171.71l-.56,47.77S164.62,226.65,129,174.66s29.58-37.4,29.58-37.4Z" class="cls-6"></path></g><path d="M160.34,169.06l1.11,246.11a7.83,7.83,0,0,0,3.5,6.49C182,433,259.69,477.85,350.86,419.93a7.86,7.86,0,0,0,3.66-6.54l3.07-247.1a6.66,6.66,0,0,0-6.66-6.75H169.82A9.48,9.48,0,0,0,160.34,169.06Z" class="cls-7"></path><ellipse ry="24.18" rx="98.69" cy="161.43" cx="258.46" class="cls-8"></ellipse><ellipse ry="9.99" rx="23.24" cy="161.21" cx="259.56" class="cls-9"></ellipse><path d="M357.59,196.14c-106.88,52.26-199,.46-199,.46" class="cls-7"></path><path d="M354.72,397.07c-99.17,46-194.87-2-194.87-2" class="cls-7"></path><rect transform="translate(289.67 -98.13) rotate(45)" height="82.05" width="82.05" y="259.57" x="222.26" class="cls-10"></rect><line y2="283.67" x2="178.54" y1="223.36" x1="178.54" class="cls-11"></line><line y2="297.48" x2="191.35" y1="248.04" x1="191.35" class="cls-11"></line><circle r="4.38" cy="233.97" cx="191.27" class="cls-12"></circle><path d="M260.32,160.23c-3.54-8.39-5.15-24.92,2.42-57.47a6.48,6.48,0,0,0,.16-2.06c-.43-5.18-2.49-28.12-5.93-34.9a32.83,32.83,0,0,1-1.87-4.56c-.89-2.72-3.63-5.68-12,0-9.54,6.45-5.68,10.17-3.15,11.62a6.41,6.41,0,0,1,2.66,2.82c2.82,6,9.2,24.54-1.27,55.79a6.49,6.49,0,0,0-.35,2.27c.12,5.53,1.13,28.82,9.09,34.8a5.78,5.78,0,0,0,1.32.71l.13,0A6.82,6.82,0,0,0,260.32,160.23Z" class="cls-13"></path><path d="M237,71.12S251.48,74,255.1,61.28" class="cls-14"></path><path d="M245.64,84.91s8.81,3.88,13.92-1.92" class="cls-14"></path><path d="M247.05,103.91s5.6,2.8,15.69-.64" class="cls-14"></path><path d="M243,127.1s11.14,1.51,15.49-.44" class="cls-14"></path><path d="M243,147.72s5.55,4.46,14.55,0" class="cls-14"></path></svg>