<svg t="1634216946237" class="icon" viewBox="0 0 1024 1024" version="1.1" xmlns="http://www.w3.org/2000/svg" p-id="1464" width="200" height="200"><path d="M438.856 950.856h512V585.144H713.144c-15.216 0-28.16-5.344-38.84-16.016-10.68-10.68-16.016-23.632-16.016-38.84V292.56H438.856v658.288zM585.144 128v-36.568a17.6 17.6 0 0 0-5.416-12.88 17.584 17.584 0 0 0-12.872-5.408H164.568c-4.968 0-9.264 1.8-12.872 5.408a17.584 17.584 0 0 0-5.408 12.88V128a17.6 17.6 0 0 0 5.408 12.88c3.608 3.6 7.904 5.408 12.88 5.408h402.28c4.976 0 9.264-1.808 12.88-5.416 3.6-3.6 5.408-7.896 5.408-12.872z m146.288 384h170.856L731.44 341.136V512zM1024 585.144v384c0 15.216-5.336 28.16-16.016 38.84-10.68 10.68-23.624 16.016-38.84 16.016H420.56c-15.208 0-28.16-5.336-38.832-16.016-10.68-10.68-16.024-23.624-16.024-38.84v-91.432H54.856c-15.216 0-28.16-5.336-38.84-16.016C5.336 851.016 0 838.072 0 822.856v-768c0-15.216 5.336-28.16 16.016-38.84C26.696 5.336 39.64 0 54.856 0h621.712c15.216 0 28.16 5.336 38.84 16.016 10.68 10.68 16.024 23.624 16.024 38.84V242.32c8 4.976 14.848 10.32 20.552 16.024l233.176 233.176c10.68 10.68 19.824 25.16 27.432 43.44 7.6 18.296 11.408 35.064 11.408 50.328v-0.144z" p-id="1465"></path></svg>