<svg t="1634216484066" class="icon" viewBox="0 0 1024 1024" version="1.1" xmlns="http://www.w3.org/2000/svg" p-id="2970" width="200" height="200"><path d="M512 0c-141.368889 0-256 116.224-256 259.612444 0 143.36 114.631111 259.612444 256 259.612445s256-116.252444 256-259.612445c0-68.835556-26.965333-134.883556-74.979556-183.580444A254.208 254.208 0 0 0 512 0z m341.333333 591.331556H170.666667c-94.264889 0-170.666667 77.482667-170.666667 173.056v201.927111C0 998.172444 25.457778 1024 56.888889 1024h910.222222c31.431111 0 56.888889-25.827556 56.888889-57.685333v-201.927111c0-95.573333-76.401778-173.056-170.666667-173.056z" p-id="2971"></path></svg>